<?xml version="1.0" standalone="no"?>
<!DOCTYPE svg PUBLIC "-//W3C//DTD SVG 20010904//EN"
 "http://www.w3.org/TR/2001/REC-SVG-20010904/DTD/svg10.dtd">
<svg version="1.0" xmlns="http://www.w3.org/2000/svg"
 width="938.000000pt" height="527.000000pt" viewBox="0 0 938.000000 527.000000"
 preserveAspectRatio="xMidYMid meet">

<g transform="translate(0.000000,527.000000) scale(0.100000,-0.100000)"
fill="#000000" stroke="none">
<path d="M4295 4360 c-367 -15 -675 -61 -815 -121 -47 -20 -100 -68 -100 -91
0 -5 12 4 26 21 14 17 33 31 42 30 11 0 12 -2 5 -6 -7 -2 -13 -11 -13 -19 0
-9 -4 -13 -9 -9 -6 3 1 -26 15 -65 13 -39 25 -82 26 -95 1 -14 6 -25 11 -25 5
0 7 -7 3 -15 -3 -9 0 -15 9 -15 8 0 15 -4 15 -10 0 -5 -7 -10 -15 -10 -21 0
-19 -37 3 -44 9 -3 5 -4 -10 -2 -24 3 -30 -3 -49 -43 -30 -64 -29 -136 3 -201
30 -59 22 -66 -12 -11 -14 21 -29 36 -35 33 -5 -3 -7 -2 -3 3 4 4 -2 21 -13
36 -11 16 -22 38 -24 50 -10 50 -17 29 -12 -31 10 -106 33 -157 101 -226 72
-72 123 -93 244 -101 l83 -6 -7 269 c-5 223 -4 267 7 257 15 -15 43 -18 35 -4
-4 5 4 7 16 3 13 -3 19 -1 15 5 -4 7 0 9 11 6 10 -2 47 3 83 12 55 15 177 32
369 52 120 13 581 7 725 -10 151 -17 322 -49 356 -67 10 -6 27 -10 38 -10 29
0 33 -48 24 -293 -6 -160 -5 -211 4 -219 18 -15 109 0 174 29 67 29 127 88
165 161 21 43 28 73 34 150 4 54 4 101 2 106 -3 5 -15 -13 -27 -39 l-22 -48
-13 64 c-8 35 -13 70 -12 77 2 6 -3 12 -10 12 -10 0 -10 2 -1 8 7 4 14 21 17
38 2 16 6 37 10 47 29 82 47 158 41 178 -4 11 -25 30 -48 43 -130 75 -459 127
-927 146 -263 11 -264 11 -535 0z m-590 -393 c6 -4 -3 -5 -19 -1 -19 5 -27 3
-23 -4 7 -11 -129 -29 -140 -18 -4 3 2 7 13 8 57 4 72 7 109 20 22 8 42 12 45
9 3 -3 10 -9 15 -14z m1962 -33 c-3 -3 -12 -4 -19 -1 -8 3 -5 6 6 6 11 1 17
-2 13 -5z m63 -54 c0 -5 -2 -10 -4 -10 -3 0 -8 5 -11 10 -3 6 -1 10 4 10 6 0
11 -4 11 -10z"/>
<path d="M4560 3960 c-96 -8 -230 -39 -230 -52 0 -5 -4 -7 -8 -4 -28 17 -287
-125 -277 -152 3 -7 0 -10 -6 -7 -19 12 -142 -127 -181 -205 -44 -89 -71 -168
-64 -187 4 -9 30 -13 100 -13 104 0 106 1 106 69 0 50 37 72 125 74 48 1 64 5
60 14 -3 8 5 13 20 13 14 0 25 -5 25 -11 0 -6 7 -3 16 5 12 13 36 15 127 12
73 -2 97 -1 67 4 -75 13 426 7 530 -6 52 -7 132 -21 178 -30 l82 -19 0 -57 c0
-31 5 -60 11 -63 6 -4 46 -9 89 -12 94 -7 95 -6 81 87 -15 97 -17 105 -53 178
-44 90 -168 213 -264 261 -38 19 -78 39 -88 44 -32 16 -76 27 -185 47 -110 21
-124 21 -261 10z m0 -20 c0 -5 -5 -10 -11 -10 -5 0 -7 5 -4 10 3 6 8 10 11 10
2 0 4 -4 4 -10z m415 -80 c3 -5 1 -10 -4 -10 -6 0 -11 5 -11 10 0 6 2 10 4 10
3 0 8 -4 11 -10z m62 4 c-3 -3 -12 -4 -19 -1 -8 3 -5 6 6 6 11 1 17 -2 13 -5z
m47 -19 c11 -8 15 -15 10 -15 -6 0 -19 7 -30 15 -10 8 -14 14 -9 14 6 0 19 -6
29 -14z m-867 -11 c-3 -3 -12 -4 -19 -1 -8 3 -5 6 6 6 11 1 17 -2 13 -5z m933
-34 c0 -5 -5 -10 -11 -10 -5 0 -7 5 -4 10 3 6 8 10 11 10 2 0 4 -4 4 -10z
m-1030 -20 c0 -5 -7 -10 -15 -10 -8 0 -15 5 -15 10 0 6 7 10 15 10 8 0 15 -4
15 -10z m-43 -72 c-3 -8 -6 -5 -6 6 -1 11 2 17 5 13 3 -3 4 -12 1 -19z m-32 2
c-3 -5 -11 -10 -16 -10 -6 0 -7 5 -4 10 3 6 11 10 16 10 6 0 7 -4 4 -10z
m1252 -75 c-16 -17 -17 -14 -10 14 4 15 8 19 13 10 5 -6 3 -18 -3 -24z m-1347
-10 c-7 -9 -15 -13 -19 -10 -3 3 1 10 9 15 21 14 24 12 10 -5z m1375 -5 c3 -5
1 -10 -4 -10 -6 0 -11 5 -11 10 0 6 2 10 4 10 3 0 8 -4 11 -10z"/>
<path d="M4278 3373 c7 -3 16 -2 19 1 4 3 -2 6 -13 5 -11 0 -14 -3 -6 -6z"/>
<path d="M3610 3360 c8 -5 33 -10 55 -10 22 0 47 5 55 10 10 7 -6 10 -55 10
-49 0 -65 -3 -55 -10z"/>
<path d="M4198 3363 c7 -3 16 -2 19 1 4 3 -2 6 -13 5 -11 0 -14 -3 -6 -6z"/>
<path d="M5458 3350 c13 -6 38 -6 60 -1 35 8 33 9 -23 9 -46 1 -55 -1 -37 -8z"/>
<path d="M3733 3313 c37 -2 97 -2 135 0 37 2 6 3 -68 3 -74 0 -105 -1 -67 -3z"/>
<path d="M3950 3310 c0 -5 7 -10 15 -10 8 0 15 5 15 10 0 6 -7 10 -15 10 -8 0
-15 -4 -15 -10z"/>
<path d="M5433 3303 c9 -2 25 -2 35 0 9 3 1 5 -18 5 -19 0 -27 -2 -17 -5z"/>
<path d="M4420 3224 c-430 -51 -656 -118 -873 -262 -245 -161 -327 -339 -298
-645 65 -682 576 -1506 1086 -1752 113 -54 198 -75 306 -75 306 0 666 254
1000 705 174 235 340 572 423 856 69 242 76 516 15 626 -10 18 -14 35 -9 38 4
3 11 -8 15 -25 4 -16 11 -30 15 -30 5 0 3 15 -5 33 -9 21 -19 31 -31 29 -12
-3 -15 1 -10 13 3 9 -1 26 -9 38 -8 12 -15 17 -15 11 0 -5 5 -15 12 -22 6 -6
9 -14 7 -17 -3 -2 -16 9 -29 27 -12 17 -18 28 -11 24 7 -4 9 -2 5 8 -3 9 -12
12 -22 9 -11 -5 -14 -2 -9 9 5 14 -28 57 -39 51 -10 -7 -25 -2 -19 6 3 5 -4
12 -15 16 -12 4 -17 11 -14 18 4 7 4 9 -1 5 -4 -4 -30 10 -59 32 -164 123
-393 205 -716 255 -101 16 -611 30 -700 19z m318 -151 c-49 -2 -127 -2 -175 0
-49 1 -9 3 87 3 96 0 136 -2 88 -3z m-341 -9 c-3 -3 -12 -4 -19 -1 -8 3 -5 6
6 6 11 1 17 -2 13 -5z m50 0 c-3 -3 -12 -4 -19 -1 -8 3 -5 6 6 6 11 1 17 -2
13 -5z m466 -1 c-13 -2 -33 -2 -45 0 -13 2 -3 4 22 4 25 0 35 -2 23 -4z m-600
-10 c-7 -2 -21 -2 -30 0 -10 3 -4 5 12 5 17 0 24 -2 18 -5z m675 0 c-10 -2
-26 -2 -35 0 -10 3 -2 5 17 5 19 0 27 -2 18 -5z m-778 -15 c-30 -5 -63 -14
-73 -19 -18 -10 -36 -5 -25 7 7 7 95 22 128 22 14 -1 0 -5 -30 -10z m298 -6
c-16 -2 -28 -8 -28 -13 0 -15 160 -11 160 4 0 6 5 4 11 -5 12 -22 48 -24 55
-3 7 17 40 20 49 5 3 -5 15 -10 26 -10 10 0 19 5 19 10 0 6 18 10 40 10 29 0
40 -4 40 -16 0 -12 15 -15 88 -15 86 1 198 -13 237 -29 36 -15 118 -23 110
-11 -3 6 -1 11 4 11 6 0 11 -4 11 -10 0 -5 7 -10 15 -10 8 0 15 -7 15 -15 0
-12 13 -15 60 -14 33 1 60 3 60 5 0 2 -12 10 -27 19 -64 36 24 3 135 -52 117
-57 238 -144 282 -203 14 -18 31 -39 38 -46 7 -7 22 -34 35 -61 20 -44 22 -62
21 -208 0 -145 -3 -171 -31 -275 -86 -323 -269 -680 -486 -950 -87 -108 -258
-274 -361 -352 -97 -72 -230 -143 -310 -164 -71 -19 -199 -18 -266 2 -293 88
-641 445 -858 882 -231 464 -308 947 -183 1143 65 103 169 186 322 258 81 38
137 56 99 31 -12 -8 -10 -10 9 -10 15 0 21 5 18 13 -5 13 59 40 143 61 l25 7
-25 -15 c-14 -9 -34 -15 -44 -16 -29 0 -16 -7 29 -13 28 -5 34 -4 20 3 -11 5
-15 9 -8 9 6 1 19 4 27 7 12 5 15 2 9 -11 -5 -15 -3 -17 18 -11 13 4 66 12
117 18 50 7 92 15 92 20 0 13 78 9 84 -4 3 -10 9 -8 19 5 8 9 24 17 36 17 12
0 20 4 17 8 -3 5 9 6 27 3 32 -5 32 -6 5 -9z m319 12 c-3 -3 -12 -4 -19 -1 -8
3 -5 6 6 6 11 1 17 -2 13 -5z m301 -3 c7 -4 -13 -6 -45 -4 -79 6 -89 11 -23
12 30 0 61 -3 68 -8z m-785 -8 c-7 -2 -21 -2 -30 0 -10 3 -4 5 12 5 17 0 24
-2 18 -5z m930 -30 c-7 -2 -21 -2 -30 0 -10 3 -4 5 12 5 17 0 24 -2 18 -5z
m82 -18 c41 -18 7 -19 -36 0 -23 10 -28 14 -14 14 11 0 34 -6 50 -14z m-72
-12 c-7 -2 -19 -2 -25 0 -7 3 -2 5 12 5 14 0 19 -2 13 -5z m134 -9 c-3 -3 -12
-4 -19 -1 -8 3 -5 6 6 6 11 1 17 -2 13 -5z m554 -121 c13 -16 12 -17 -3 -4
-10 7 -18 15 -18 17 0 8 8 3 21 -13z"/>
<path d="M3956 2966 l-28 -13 32 -7 c18 -3 35 -4 38 -1 3 3 -3 5 -14 5 -14 0
-16 2 -5 9 7 5 23 7 35 5 20 -4 20 -4 1 5 -25 12 -24 12 -59 -3z"/>
<path d="M3837 2926 c-4 -10 0 -12 14 -9 22 6 26 23 5 23 -8 0 -16 -6 -19 -14z"/>
<path d="M4138 2933 c7 -3 16 -2 19 1 4 3 -2 6 -13 5 -11 0 -14 -3 -6 -6z"/>
<path d="M5504 2905 c11 -8 24 -15 30 -15 5 0 7 -2 4 -5 -3 -3 -24 2 -47 11
-23 9 -45 13 -49 10 -10 -10 16 -23 62 -30 31 -6 37 -9 26 -17 -18 -12 47 -1
70 12 13 7 13 8 0 9 -8 0 -32 9 -53 20 -43 23 -71 26 -43 5z m73 -31 c-3 -3
-12 -4 -19 -1 -8 3 -5 6 6 6 11 1 17 -2 13 -5z"/>
<path d="M3941 2885 c-36 -8 -98 -30 -138 -50 -174 -82 -303 -291 -301 -485
l1 -65 8 85 c15 169 80 287 214 393 120 96 334 134 486 87 86 -27 156 -65 209
-113 22 -21 40 -34 40 -29 0 13 -66 69 -129 107 -112 69 -269 97 -390 70z"/>
<path d="M3725 2870 c-3 -5 -1 -10 4 -10 6 0 11 5 11 10 0 6 -2 10 -4 10 -3 0
-8 -4 -11 -10z"/>
<path d="M5213 2841 c-29 -9 -56 -21 -60 -25 -4 -5 -1 -7 9 -3 48 17 148 27
221 23 243 -16 437 -187 478 -421 28 -163 -23 -328 -144 -464 l-41 -46 43 40
c54 51 113 150 142 239 18 58 21 84 16 170 -6 115 -26 183 -80 266 -65 102
-158 174 -275 215 -87 30 -225 33 -309 6z"/>
<path d="M5615 2850 c27 -12 35 -12 35 0 0 6 -12 10 -27 9 -25 0 -26 -1 -8 -9z"/>
<path d="M5593 2830 c48 -26 62 -26 19 0 -18 11 -38 20 -45 20 -6 0 5 -9 26
-20z"/>
<path d="M3649 2819 c-23 -19 -23 -20 -2 -10 12 6 25 16 28 21 10 16 -1 12
-26 -11z"/>
<path d="M5670 2820 c0 -19 3 -21 12 -12 9 9 9 15 0 24 -9 9 -12 7 -12 -12z"/>
<path d="M5705 2800 c3 -5 8 -10 11 -10 2 0 4 5 4 10 0 6 -5 10 -11 10 -5 0
-7 -4 -4 -10z"/>
<path d="M4040 2725 c-18 -21 -5 -47 22 -43 26 3 37 36 16 49 -18 12 -24 11
-38 -6z"/>
<path d="M4470 2694 c0 -5 12 -22 26 -39 l26 -30 -23 35 c-29 45 -29 45 -29
34z"/>
<path d="M5336 2684 c-4 -10 -2 -22 3 -27 15 -15 46 -3 46 18 0 26 -40 33 -49
9z"/>
<path d="M3847 2678 c-6 -18 11 -48 28 -48 21 0 37 34 23 48 -16 16 -45 15
-51 0z"/>
<path d="M4227 2673 c-13 -12 -7 -41 10 -47 9 -4 23 -1 30 7 8 7 11 21 7 30
-6 17 -35 23 -47 10z"/>
<path d="M3915 2631 c-119 -56 -188 -163 -189 -291 -1 -126 61 -230 171 -286
52 -26 68 -29 153 -29 86 0 101 3 154 30 64 33 113 83 148 154 18 37 22 63 23
131 0 75 -4 92 -30 144 -57 113 -163 176 -298 176 -58 0 -83 -5 -132 -29z"/>
<path d="M5310 2629 c-106 -12 -205 -82 -258 -184 -22 -43 -26 -63 -27 -140 0
-79 3 -96 27 -141 56 -106 170 -174 291 -174 116 0 241 80 297 191 31 60 38
174 15 236 -55 148 -188 230 -345 212z"/>
<path d="M4520 2611 c0 -6 4 -13 10 -16 6 -3 7 1 4 9 -7 18 -14 21 -14 7z"/>
<path d="M3714 2546 c-9 -24 4 -48 23 -44 12 2 18 12 18 28 0 29 -32 41 -41
16z"/>
<path d="M4353 2524 c-3 -8 1 -22 9 -30 12 -12 17 -12 33 -1 23 17 14 47 -15
47 -11 0 -23 -7 -27 -16z"/>
<path d="M3661 2366 c-15 -18 -3 -46 20 -46 25 0 35 26 19 45 -15 19 -24 19
-39 1z"/>
<path d="M4401 2347 c-8 -10 -7 -19 4 -33 13 -18 15 -18 31 -2 18 18 13 48 -9
48 -8 0 -20 -6 -26 -13z"/>
<path d="M4950 2335 c-16 -19 -6 -45 19 -45 23 0 35 28 20 46 -15 18 -24 18
-39 -1z"/>
<path d="M5693 2314 c-3 -8 2 -23 11 -32 15 -15 17 -15 32 0 21 21 11 48 -16
48 -11 0 -23 -7 -27 -16z"/>
<path d="M3704 2176 c-8 -21 3 -36 27 -36 15 0 20 6 17 22 -4 27 -35 37 -44
14z"/>
<path d="M4350 2165 c-16 -19 -5 -47 17 -43 11 2 18 12 18 27 0 29 -17 37 -35
16z"/>
<path d="M3840 2045 c-25 -30 10 -61 38 -33 17 17 15 26 -7 37 -14 8 -22 7
-31 -4z"/>
<path d="M4213 2043 c-19 -7 -16 -40 4 -47 9 -4 23 0 31 8 13 12 13 18 2 30
-13 17 -17 18 -37 9z"/>
<path d="M4016 1991 c-11 -18 6 -42 28 -39 29 4 29 42 -1 46 -11 2 -24 -1 -27
-7z"/>
<path d="M5310 1950 c0 -16 5 -21 23 -18 12 2 22 10 22 18 0 8 -10 16 -22 18
-18 3 -23 -2 -23 -18z"/>
<path d="M5640 1889 c-22 -18 -22 -19 -3 -10 12 6 25 16 28 21 9 15 3 12 -25
-11z"/>
<path d="M4655 1591 c-9 -16 3 -31 26 -31 14 0 19 6 17 17 -4 20 -33 29 -43
14z"/>
<path d="M4653 1484 c-9 -23 13 -40 32 -24 12 10 13 16 4 26 -15 18 -28 18
-36 -2z"/>
<path d="M4565 1470 c-4 -7 -3 -16 3 -22 14 -14 45 -2 40 15 -6 16 -34 21 -43
7z"/>
<path d="M4747 1473 c-14 -13 -6 -33 13 -33 13 0 20 7 20 20 0 19 -20 27 -33
13z"/>
<path d="M4485 1430 c-4 -7 -3 -16 3 -22 14 -14 45 -2 40 15 -6 16 -34 21 -43
7z"/>
<path d="M4821 1426 c-8 -10 -7 -17 3 -26 17 -13 36 -6 36 15 0 19 -27 26 -39
11z"/>
<path d="M4652 1393 c2 -10 10 -18 18 -18 8 0 16 8 18 18 2 12 -3 17 -18 17
-15 0 -20 -5 -18 -17z"/>
<path d="M4565 1380 c-4 -7 -3 -16 3 -22 14 -14 45 -2 40 15 -6 16 -34 21 -43
7z"/>
<path d="M4734 1379 c-3 -6 0 -17 8 -25 13 -13 16 -13 27 0 7 8 10 20 6 26 -8
13 -32 13 -41 -1z"/>
<path d="M4426 1362 c-9 -14 12 -35 28 -29 23 9 20 37 -3 37 -11 0 -22 -4 -25
-8z"/>
<path d="M4877 1364 c-14 -15 -6 -34 14 -34 14 0 19 5 17 17 -3 18 -20 27 -31
17z"/>
<path d="M4500 1310 c0 -13 7 -20 20 -20 13 0 20 7 20 20 0 13 -7 20 -20 20
-13 0 -20 -7 -20 -20z"/>
<path d="M4646 1315 c-3 -9 1 -18 10 -22 19 -7 39 11 30 26 -10 16 -33 13 -40
-4z"/>
<path d="M4801 1316 c-8 -10 -8 -16 3 -25 10 -9 16 -8 26 3 12 15 6 36 -9 36
-5 0 -14 -6 -20 -14z"/>
<path d="M4395 1280 c-8 -13 3 -30 20 -30 14 0 27 24 18 34 -10 9 -31 7 -38
-4z"/>
<path d="M4573 1274 c-8 -20 17 -36 34 -22 10 8 10 14 2 24 -15 18 -28 18 -36
-2z"/>
<path d="M4723 1274 c-8 -21 13 -42 28 -27 13 13 5 43 -11 43 -6 0 -13 -7 -17
-16z"/>
<path d="M4902 1263 c2 -10 10 -18 18 -18 8 0 16 8 18 18 2 12 -3 17 -18 17
-15 0 -20 -5 -18 -17z"/>
<path d="M4473 1234 c-9 -23 19 -37 37 -18 13 13 13 16 0 24 -21 14 -30 12
-37 -6z"/>
<path d="M4650 1235 c-16 -20 -1 -38 23 -29 21 8 22 18 3 33 -10 9 -16 8 -26
-4z"/>
<path d="M4815 1230 c-4 -7 -3 -16 3 -22 14 -14 45 -2 40 15 -6 16 -34 21 -43
7z"/>
<path d="M4392 1183 c2 -10 10 -18 18 -18 8 0 16 8 18 18 2 12 -3 17 -18 17
-15 0 -20 -5 -18 -17z"/>
<path d="M4572 1183 c2 -10 10 -18 18 -18 8 0 16 8 18 18 2 12 -3 17 -18 17
-15 0 -20 -5 -18 -17z"/>
<path d="M4717 1193 c-3 -5 -2 -15 3 -22 10 -17 43 -6 38 12 -6 15 -34 22 -41
10z"/>
<path d="M4895 1190 c-4 -7 -3 -16 3 -22 14 -14 45 -2 40 15 -6 16 -34 21 -43
7z"/>
<path d="M4495 1150 c-8 -13 3 -30 20 -30 14 0 27 24 18 34 -10 9 -31 7 -38
-4z"/>
<path d="M4645 1150 c-8 -14 3 -30 21 -30 8 0 14 9 14 20 0 21 -24 28 -35 10z"/>
<path d="M4797 1154 c-14 -15 -6 -34 14 -34 14 0 19 5 17 17 -3 18 -20 27 -31
17z"/>
<path d="M4420 1099 c0 -14 5 -19 17 -17 26 5 29 38 4 38 -15 0 -21 -6 -21
-21z"/>
<path d="M4863 1104 c-7 -18 17 -38 31 -24 11 11 1 40 -14 40 -6 0 -13 -7 -17
-16z"/>
<path d="M4555 1090 c-4 -7 -3 -16 3 -22 14 -14 45 -2 40 15 -6 16 -34 21 -43
7z"/>
<path d="M4725 1090 c-4 -7 -3 -16 3 -22 14 -14 45 -2 40 15 -6 16 -34 21 -43
7z"/>
<path d="M4647 1074 c-14 -15 -6 -34 14 -34 14 0 19 5 17 17 -3 18 -20 27 -31
17z"/>
<path d="M4476 1041 c-3 -5 0 -14 8 -20 10 -8 16 -8 25 2 6 8 8 17 4 20 -9 10
-31 9 -37 -2z"/>
<path d="M4804 1039 c-3 -6 -1 -16 4 -21 13 -13 45 8 36 23 -7 12 -31 11 -40
-2z"/>
<path d="M4554 999 c-10 -17 13 -36 27 -22 12 12 4 33 -11 33 -5 0 -12 -5 -16
-11z"/>
<path d="M4725 1000 c-4 -7 -3 -16 3 -22 14 -14 45 -2 40 15 -6 16 -34 21 -43
7z"/>
<path d="M4636 981 c-8 -12 21 -34 34 -26 17 11 11 35 -9 35 -11 0 -22 -4 -25
-9z"/>
<path d="M4632 873 c4 -22 43 -25 43 -3 0 8 -11 16 -23 18 -19 3 -23 0 -20
-15z"/>
</g>
</svg>
